HIERARCHY
ROOT Hips
{
	OFFSET 0.000000 0.000000 0.000000
	CHANNELS 6 Xposition Yposition Zposition Xrotation Yrotation Zrotation
	JOINT Spine
	{
		OFFSET 0.000000 0.042231 0.063346
		CHANNELS 3 Xrotation Yrotation Zrotation
		JOINT Spine1
		{
			OFFSET 0.000000 0.014667 0.083179
			CHANNELS 3 Xrotation Yrotation Zrotation
			JOINT Spine2
			{
				OFFSET 0.000000 0.007361 0.084141
				CHANNELS 3 Xrotation Yrotation Zrotation
				JOINT Spine3
				{
					OFFSET 0.000000 0.000000 0.084462
					CHANNELS 3 Xrotation Yrotation Zrotation
					JOINT Neck
					{
						OFFSET 0.000000 -0.031673 0.221713
						CHANNELS 3 Xrotation Yrotation Zrotation
						JOINT Head
						{
							OFFSET 0.000000 -0.020167 0.114371
							CHANNELS 3 Xrotation Yrotation Zrotation
							End Site
							{
								OFFSET 0.000000 0.000000 0.000000
							}
						}
					}
					JOINT RightShoulder
					{
						OFFSET -0.029161 -0.048602 0.157471
						CHANNELS 3 Xrotation Yrotation Zrotation
						JOINT RightArm
						{
							OFFSET -0.144834 0.000000 0.000000
							CHANNELS 3 Xrotation Yrotation Zrotation
							JOINT RightForeArm
							{
								OFFSET -0.274949 0.000000 0.000000
								CHANNELS 3 Xrotation Yrotation Zrotation
								JOINT RightHand
								{
									OFFSET -0.254725 0.000000 0.000000
									CHANNELS 3 Xrotation Yrotation Zrotation
									JOINT RightHandEnd
									{
										OFFSET -0.068160 0.000000 0.000000
										CHANNELS 3 Xrotation Yrotation Zrotation
										End Site
										{
											OFFSET 0.000000 0.000000 0.000000
										}
									}
									JOINT RightHandThumb1
									{
										OFFSET -0.027264 -0.045440 -0.018176
										CHANNELS 3 Xrotation Yrotation Zrotation
										End Site
										{
											OFFSET 0.000000 0.000000 0.000000
										}
									}
								}
							}
						}
					}
					JOINT LeftShoulder
					{
						OFFSET 0.029161 -0.048602 0.157471
						CHANNELS 3 Xrotation Yrotation Zrotation
						JOINT LeftArm
						{
							OFFSET 0.144834 0.000000 0.000000
							CHANNELS 3 Xrotation Yrotation Zrotation
							JOINT LeftForeArm
							{
								OFFSET 0.274949 0.000000 0.000000
								CHANNELS 3 Xrotation Yrotation Zrotation
								JOINT LeftHand
								{
									OFFSET 0.254725 0.000000 0.000000
									CHANNELS 3 Xrotation Yrotation Zrotation
									JOINT LeftHandEnd
									{
										OFFSET 0.068160 0.000000 0.000000
										CHANNELS 3 Xrotation Yrotation Zrotation
										End Site
										{
											OFFSET 0.000000 0.000000 0.000000
										}
									}
									JOINT LeftHandThumb1
									{
										OFFSET 0.027264 -0.045440 -0.018176
										CHANNELS 3 Xrotation Yrotation Zrotation
										End Site
										{
											OFFSET 0.000000 0.000000 0.000000
										}
									}
								}
							}
						}
					}
				}
			}
		}
	}
	JOINT RightUpLeg
	{
		OFFSET -0.086512 0.000000 -0.025273
		CHANNELS 3 Xrotation Yrotation Zrotation
		JOINT RightLeg
		{
			OFFSET 0.000000 0.000000 -0.433119
			CHANNELS 3 Xrotation Yrotation Zrotation
			JOINT RightFoot
			{
				OFFSET 0.000000 0.000000 -0.404688
				CHANNELS 3 Xrotation Yrotation Zrotation
				JOINT RightToeBase
				{
					OFFSET 0.000000 -0.126496 -0.046041
					CHANNELS 3 Xrotation Yrotation Zrotation
					End Site
					{
						OFFSET 0.000000 0.000000 0.000000
					}
				}
			}
		}
	}
	JOINT LeftUpLeg
	{
		OFFSET 0.086512 0.000000 -0.025273
		CHANNELS 3 Xrotation Yrotation Zrotation
		JOINT LeftLeg
		{
			OFFSET 0.000000 0.000000 -0.433119
			CHANNELS 3 Xrotation Yrotation Zrotation
			JOINT LeftFoot
			{
				OFFSET 0.000000 0.000000 -0.404688
				CHANNELS 3 Xrotation Yrotation Zrotation
				JOINT LeftToeBase
				{
					OFFSET 0.000000 -0.126496 -0.046041
					CHANNELS 3 Xrotation Yrotation Zrotation
					End Site
					{
						OFFSET 0.000000 0.000000 0.000000
					}
				}
			}
		}
	}
}
MOTION
Frames: 12
Frame Time: 0.033333
0.099454 -2.845120 0.889124 -2.078300 -0.067400 -177.839300 -1.797100 -0.035100 -0.126700 -0.650100 -0.232200 0.008200 -1.445900 -0.497600 0.806800 -0.148700 -0.214900 0.217800 4.281400 -0.397200 -0.600900 -3.648200 1.808700 -1.691100 -2.222900 14.911100 1.396700 -24.656900 -16.392300 -11.125100 0.000000 0.000000 18.402500 -11.113800 25.291600 4.208500 0.000000 0.000000 0.000000 0.000000 0.000000 0.000000 4.782000 -13.692600 1.974900 -10.434800 19.390600 -4.323300 0.000000 0.000000 -14.749900 -12.779400 -34.523500 -5.225000 0.000000 0.000000 0.000000 0.000000 0.000000 0.000000 -2.210300 0.690300 -31.760500 1.275300 0.000000 0.000000 -7.679400 -6.639500 -7.444700 0.271800 0.000000 0.000000 -0.150100 -1.519800 23.845500 -1.743300 0.000000 0.000000 -4.415400 15.497700 9.771300 0.223700 0.000000 0.000000 
0.099314 -2.845692 0.889160 -2.059300 -0.069000 -177.858700 -1.766400 -0.032800 -0.130000 -0.629600 -0.239500 0.009400 -1.484000 -0.492700 0.831000 -0.158200 -0.222900 0.223500 4.342900 -0.428600 -0.533000 -3.643700 1.827900 -1.566900 -2.226000 14.985000 1.456700 -24.613400 -16.366600 -11.094500 0.000000 0.000000 18.428600 -11.105200 25.318800 4.236600 0.000000 0.000000 0.000000 0.000000 0.000000 0.000000 4.767900 -13.721400 1.953200 -10.415200 19.316100 -4.331100 0.000000 0.000000 -14.769900 -12.742700 -34.540800 -5.191500 0.000000 0.000000 0.000000 0.000000 0.000000 0.000000 -2.226700 0.698200 -31.776700 1.267700 0.000000 0.000000 -7.639900 -6.669400 -7.409500 0.319900 0.000000 0.000000 -0.155900 -1.508400 23.863400 -1.765200 0.000000 0.000000 -4.374400 15.498100 9.769400 0.204300 0.000000 0.000000 
0.099073 -2.846636 0.889211 -2.034400 -0.063500 -177.879700 -1.720400 -0.028200 -0.132500 -0.593600 -0.240800 0.009300 -1.534000 -0.494800 0.859200 -0.170200 -0.237800 0.233000 4.432500 -0.458500 -0.405300 -3.703900 1.857300 -1.326200 -2.238500 15.114100 1.513900 -24.515800 -16.324300 -11.017800 0.000000 0.000000 18.500800 -11.056400 25.394400 4.302000 0.000000 0.000000 0.000000 0.000000 0.000000 0.000000 4.758500 -13.765400 1.958000 -10.447100 19.225300 -4.346000 0.000000 0.000000 -14.848700 -12.984400 -34.466100 -5.361500 0.000000 0.000000 0.000000 0.000000 0.000000 0.000000 -2.264100 0.724200 -31.787300 1.266700 0.000000 0.000000 -7.575400 -6.722500 -7.372300 0.386300 0.000000 0.000000 -0.176900 -1.481900 23.880700 -1.792400 0.000000 0.000000 -4.308900 15.515400 9.769200 0.199200 0.000000 0.000000 
0.098788 -2.847640 0.889257 -2.007200 -0.050600 -177.893400 -1.671000 -0.024700 -0.134500 -0.552100 -0.241200 0.010000 -1.580700 -0.495100 0.889300 -0.180200 -0.257700 0.244000 4.520700 -0.485900 -0.234600 -3.821000 1.907300 -1.025700 -2.250500 15.249700 1.537100 -24.419800 -16.260200 -10.944700 0.000000 0.000000 18.638200 -10.942500 25.495800 4.344100 0.000000 0.000000 0.000000 0.000000 0.000000 0.000000 4.748400 -13.805800 1.964600 -10.532100 19.161700 -4.343800 0.000000 0.000000 -14.951800 -13.233200 -34.389100 -5.500600 0.000000 0.000000 0.000000 0.000000 0.000000 0.000000 -2.307400 0.763000 -31.775900 1.276300 0.000000 0.000000 -7.503400 -6.777800 -7.360500 0.409200 0.000000 0.000000 -0.207300 -1.447900 23.887100 -1.804100 0.000000 0.000000 -4.247800 15.534600 9.773200 0.217000 0.000000 0.000000 
0.098494 -2.848513 0.889287 -1.979900 -0.035000 -177.907100 -1.634100 -0.026000 -0.135800 -0.519900 -0.246900 0.010900 -1.620900 -0.487400 0.930300 -0.184900 -0.277700 0.252100 4.610000 -0.529300 -0.037700 -3.928500 2.004100 -0.718600 -2.255300 15.374500 1.554100 -24.376900 -16.196800 -10.924700 0.000000 0.000000 18.805500 -10.792100 25.546400 4.321900 0.000000 0.000000 0.000000 0.000000 0.000000 0.000000 4.722700 -13.834500 1.928500 -10.574400 19.129600 -4.324400 0.000000 0.000000 -15.021500 -13.251900 -34.408700 -5.462300 0.000000 0.000000 0.000000 0.000000 0.000000 0.000000 -2.348200 0.806000 -31.742900 1.297400 0.000000 0.000000 -7.440700 -6.807100 -7.374100 0.388100 0.000000 0.000000 -0.238300 -1.413700 23.896200 -1.797500 0.000000 0.000000 -4.202900 15.537700 9.772900 0.237600 0.000000 0.000000 
0.098186 -2.849293 0.889312 -1.949300 -0.026100 -177.928700 -1.618900 -0.032900 -0.138200 -0.500700 -0.258000 0.012600 -1.648900 -0.478700 0.976500 -0.186100 -0.297800 0.258400 4.705600 -0.583800 0.162700 -3.976000 2.148800 -0.422300 -2.263300 15.513600 1.598100 -24.340700 -16.177000 -10.916900 0.000000 0.000000 18.903400 -10.680200 25.508200 4.271600 0.000000 0.000000 0.000000 0.000000 0.000000 0.000000 4.668900 -13.852900 1.856200 -10.514900 19.115500 -4.313000 0.000000 0.000000 -15.043400 -13.139400 -34.499900 -5.376800 0.000000 0.000000 0.000000 0.000000 0.000000 0.000000 -2.381100 0.841900 -31.705300 1.320500 0.000000 0.000000 -7.391500 -6.809900 -7.392100 0.390900 0.000000 0.000000 -0.259400 -1.386300 23.913500 -1.790700 0.000000 0.000000 -4.166200 15.528600 9.770700 0.240700 0.000000 0.000000 
0.097861 -2.850040 0.889343 -1.912400 -0.019200 -177.958100 -1.614700 -0.039200 -0.140400 -0.491500 -0.269900 0.012200 -1.663100 -0.476600 1.021200 -0.183900 -0.314700 0.268300 4.782900 -0.620100 0.336700 -3.975700 2.297000 -0.162000 -2.285100 15.667500 1.651600 -24.239200 -16.205700 -10.850000 0.000000 0.000000 18.867300 -10.649200 25.443500 4.244600 0.000000 0.000000 0.000000 0.000000 0.000000 0.000000 4.593300 -13.864000 1.797100 -10.422000 19.129400 -4.330100 0.000000 0.000000 -15.040300 -13.106100 -34.590700 -5.374200 0.000000 0.000000 0.000000 0.000000 0.000000 0.000000 -2.401600 0.874700 -31.677100 1.336100 0.000000 0.000000 -7.353400 -6.807200 -7.396700 0.444200 0.000000 0.000000 -0.263400 -1.357800 23.922100 -1.799000 0.000000 0.000000 -4.129800 15.524100 9.785400 0.237000 0.000000 0.000000 
0.097544 -2.850733 0.889371 -1.865500 -0.011400 -177.982400 -1.603800 -0.043600 -0.142600 -0.480000 -0.278600 0.013200 -1.679400 -0.477600 1.060900 -0.184400 -0.325900 0.274400 4.841000 -0.633000 0.476600 -3.979400 2.410700 0.032200 -2.308100 15.790800 1.700900 -24.098700 -16.233200 -10.744900 0.000000 0.000000 18.742700 -10.689200 25.432800 4.251700 0.000000 0.000000 0.000000 0.000000 0.000000 0.000000 4.530000 -13.872700 1.767700 -10.391100 19.182500 -4.356800 0.000000 0.000000 -15.024700 -13.150900 -34.662000 -5.390200 0.000000 0.000000 0.000000 0.000000 0.000000 0.000000 -2.401500 0.903900 -31.659800 1.336900 0.000000 0.000000 -7.312300 -6.816400 -7.391500 0.485600 0.000000 0.000000 -0.252000 -1.328700 23.911300 -1.809700 0.000000 0.000000 -4.100400 15.513700 9.815300 0.239700 0.000000 0.000000 
0.097241 -2.851358 0.889384 -1.817400 -0.003200 -177.986900 -1.584800 -0.045600 -0.143700 -0.464100 -0.287100 0.013300 -1.722000 -0.469900 1.090600 -0.193200 -0.328000 0.269000 4.908300 -0.651200 0.589300 -3.995000 2.496300 0.166700 -2.308500 15.849400 1.760400 -24.004600 -16.227900 -10.674800 0.000000 0.000000 18.624800 -10.748700 25.476400 4.267800 0.000000 0.000000 0.000000 0.000000 0.000000 0.000000 4.509000 -13.880300 1.747400 -10.383800 19.240800 -4.385000 0.000000 0.000000 -14.993100 -13.137300 -34.705800 -5.316600 0.000000 0.000000 0.000000 0.000000 0.000000 0.000000 -2.390400 0.930000 -31.656200 1.327300 0.000000 0.000000 -7.259100 -6.832500 -7.383700 0.470900 0.000000 0.000000 -0.243500 -1.301900 23.889500 -1.806300 0.000000 0.000000 -4.080100 15.481700 9.835600 0.244200 0.000000 0.000000 
0.096957 -2.851904 0.889396 -1.759200 0.001700 -177.965500 -1.554200 -0.041600 -0.143900 -0.447900 -0.296900 0.013000 -1.789300 -0.458000 1.093000 -0.208100 -0.321200 0.256400 4.977100 -0.681300 0.659300 -3.979500 2.565400 0.270700 -2.292100 15.871200 1.829700 -23.961700 -16.230300 -10.651900 0.000000 0.000000 18.558100 -10.801900 25.509400 4.284900 0.000000 0.000000 0.000000 0.000000 0.000000 0.000000 4.521200 -13.891200 1.731000 -10.308500 19.274900 -4.428900 0.000000 0.000000 -14.948800 -13.058100 -34.676100 -5.214500 0.000000 0.000000 0.000000 0.000000 0.000000 0.000000 -2.358000 0.950800 -31.688700 1.310700 0.000000 0.000000 -7.203100 -6.849200 -7.362400 0.455200 0.000000 0.000000 -0.225100 -1.280000 23.866600 -1.798500 0.000000 0.000000 -4.059400 15.445100 9.831100 0.247100 0.000000 0.000000 
0.096700 -2.852405 0.889419 -1.709300 -0.003700 -177.928800 -1.541900 -0.038200 -0.142000 -0.434900 -0.295900 0.010100 -1.844600 -0.459700 1.066300 -0.222500 -0.314800 0.253300 4.990300 -0.692700 0.662600 -3.899700 2.601100 0.335700 -2.289200 15.899100 1.871000 -23.908600 -16.287300 -10.623800 0.000000 0.000000 18.520300 -10.848400 25.504600 4.300600 0.000000 0.000000 0.000000 0.000000 0.000000 0.000000 4.517900 -13.896200 1.726500 -10.182600 19.292600 -4.480000 0.000000 0.000000 -14.910200 -13.007300 -34.562300 -5.172100 0.000000 0.000000 0.000000 0.000000 0.000000 0.000000 -2.326000 0.959200 -31.748300 1.290600 0.000000 0.000000 -7.159100 -6.866400 -7.335200 0.496900 0.000000 0.000000 -0.214800 -1.270500 23.849700 -1.790200 0.000000 0.000000 -4.039100 15.425400 9.808400 0.261700 0.000000 0.000000 
0.096449 -2.852847 0.889447 -1.651400 0.000100 -177.902200 -1.535100 -0.023100 -0.141800 -0.428900 -0.286600 0.011700 -1.863300 -0.472400 1.042700 -0.232700 -0.316300 0.260900 4.944600 -0.676400 0.621000 -3.802400 2.595900 0.330200 -2.303200 15.936100 1.862400 -23.838300 -16.378100 -10.563700 0.000000 0.000000 18.475600 -10.924800 25.487700 4.305000 0.000000 0.000000 0.000000 0.000000 0.000000 0.000000 4.488100 -13.902100 1.731100 -10.095600 19.334200 -4.521800 0.000000 0.000000 -14.863800 -13.042300 -34.433400 -5.176700 0.000000 0.000000 0.000000 0.000000 0.000000 0.000000 -2.284200 0.977300 -31.808400 1.276900 0.000000 0.000000 -7.130000 -6.873200 -7.302000 0.544000 0.000000 0.000000 -0.190700 -1.252900 23.840300 -1.782200 0.000000 0.000000 -4.024800 15.426800 9.791700 0.299100 0.000000 0.000000 
